<?xml version="1.0" encoding="iso-8859-1"?>
<!-- Generator: Adobe Illustrator 19.0.0, SVG Export Plug-In . SVG Version: 6.00 Build 0)  -->
<svg version="1.1" id="Capa_1" xmlns="http://www.w3.org/2000/svg" xmlns:xlink="http://www.w3.org/1999/xlink" x="0px" y="0px"
	 viewBox="0 0 498.036 498.036" style="enable-background:new 0 0 498.036 498.036;" xml:space="preserve">

	<!-- background circle  -->
<circle style="fill:#E1E6E9;" cx="249.018" cy="248.242" r="248.242"/>

	<!-- orange fill color  -->
<path style="fill:#F16051;" d="M458.473,274.618v-73.697h-38.788c-4.655-20.945-12.412-40.339-24.048-57.406l27.152-27.152
	l-51.976-51.976l-27.152,27.152c-17.067-10.861-36.461-19.394-57.406-24.048V28.703h-73.697v38.788
	c-20.945,4.655-40.339,12.412-57.406,24.048L128,64.388l-51.976,51.976l27.152,27.152c-10.861,17.067-19.394,36.461-24.048,57.406
	H39.564v73.697h38.788c4.655,20.945,12.412,40.339,24.048,57.406l-27.152,27.152l51.976,51.976L154.376,384
	c17.067,10.861,36.461,19.394,57.406,24.048v38.788h73.697v-38.788c20.945-4.655,40.339-12.412,57.406-24.048l27.152,27.152
	l51.976-51.976l-27.152-27.152c10.861-17.067,19.394-36.461,24.048-57.406L458.473,274.618L458.473,274.618z"/>

	<!-- dark border  -->
<path style="fill:#193651;" d="M285.479,454.594h-73.697c-4.655,0-7.758-3.103-7.758-7.758v-32.582
	c-17.067-4.655-33.358-10.861-48.873-20.17l-23.273,23.273c-3.103,3.103-7.758,3.103-10.861,0l-51.976-51.976
	c-3.103-3.103-3.103-7.758,0-10.861l23.273-23.273c-9.309-15.515-15.515-31.806-20.17-48.873H39.564
	c-4.655,0-7.758-3.103-7.758-7.758v-73.697c0-4.655,3.103-7.758,7.758-7.758h32.582c4.655-17.067,10.861-33.358,20.17-48.873
	l-23.273-23.273c-3.103-3.103-3.103-7.758,0-10.861l51.976-51.976c3.879-3.103,8.533-3.103,11.636,0l23.273,23.273
	c15.515-9.309,31.806-15.515,48.873-20.17V28.703c0-4.655,3.103-7.758,7.758-7.758h73.697c4.655,0,7.758,3.103,7.758,7.758v32.582
	c17.067,4.655,32.582,10.861,48.097,20.17l23.273-23.273c3.103-3.103,7.758-3.103,10.861,0l51.976,51.976
	c3.103,3.103,3.103,7.758,0,10.861l-23.273,23.273c9.309,15.515,15.515,31.806,20.17,48.873h33.358c4.655,0,7.758,3.103,7.758,7.758
	v73.697c0,4.655-3.103,7.758-7.758,7.758h-32.582c-4.655,17.067-10.861,33.358-20.17,48.873l23.273,23.273
	c3.103,3.103,3.103,7.758,0,10.861l-51.976,51.976c-3.103,3.103-7.758,3.103-10.861,0l-23.273-23.273
	c-15.515,9.309-31.806,15.515-48.873,20.17v32.582C293.236,450.715,290.133,454.594,285.479,454.594z M220.315,439.079h58.182
	v-31.03c0-3.879,2.327-6.982,6.206-7.758c19.394-3.879,38.012-11.636,55.079-22.497c3.103-2.327,6.982-1.552,9.309,0.776
	l21.721,21.721l41.115-41.115l-21.721-21.721c-2.327-2.327-3.103-6.982-0.776-9.309c10.861-17.067,18.618-35.685,22.497-55.079
	c0.776-3.879,3.879-6.206,7.758-6.206h31.03v-58.182h-31.03c-3.879,0-6.982-2.327-7.758-6.206
	c-3.879-19.394-11.636-38.012-22.497-55.079c-2.327-3.103-1.552-6.982,0.776-9.309l21.721-21.721l-41.115-41.115L349.091,96.97
	c-2.327,2.327-6.982,3.103-9.309,0.776c-17.067-10.861-35.685-18.618-55.079-22.497c-3.879-0.776-6.206-3.879-6.206-7.758v-31.03
	h-58.182v31.03c0,3.879-2.327,6.982-6.206,7.758c-19.394,3.879-38.012,11.636-55.079,22.497c-3.103,2.327-6.982,1.552-9.309-0.776
	L128,75.248l-41.891,40.339l21.721,21.721c2.327,2.327,3.103,6.982,0.776,9.309c-10.861,17.067-18.618,35.685-22.497,55.079
	c-0.776,3.879-3.879,6.206-7.758,6.206h-31.03v58.182h31.03c3.879,0,6.982,2.327,7.758,6.206
	c3.879,19.394,11.636,38.012,22.497,55.079c2.327,3.103,1.552,6.982-0.776,9.309l-21.721,22.497l41.115,41.115l21.721-21.721
	c2.327-2.327,6.982-3.103,9.309-0.776c17.067,10.861,35.685,18.618,55.079,22.497c3.879,0.776,6.206,3.879,6.206,7.758v31.03
	H220.315z"/>

	<!-- bulb shape  -->
<!-- <path style="fill:#FFFFFF;" d="M326.594,356.849c34.133-24.048,56.63-64.388,56.63-109.382c0-76.8-63.612-138.085-141.188-134.206
	c-69.818,3.879-125.673,62.061-126.448,131.879c-0.776,45.77,21.721,86.885,56.63,110.933c7.758,5.43,12.412,15.515,12.412,25.6
	h130.327l0,0C314.182,372.364,318.836,363.055,326.594,356.849z"/>
<path style="fill:#FDBF5E;" d="M249.018,146.618c-1.552,0-3.879,0-5.43,0c-51.976,3.103-95.418,47.321-96.194,99.297
	c-0.776,33.358,15.515,65.164,42.667,84.558c6.982,5.43,13.188,11.636,17.842,19.394v24.824h82.23v-24.824
	c4.655-7.758,10.085-13.964,17.842-19.394c26.376-19.394,42.667-49.648,42.667-82.23
	C350.642,192.388,304.873,146.618,249.018,146.618z"/>
<path style="fill:#FFFFFF;" d="M207.903,456.145c0,18.618,15.515,34.133,34.133,34.133H256c18.618,0,34.133-15.515,34.133-34.133
	L207.903,456.145L207.903,456.145z"/>
<path style="fill:#193651;" d="M290.133,448.388h-82.23c-4.655,0-7.758,3.103-7.758,7.758c0,23.273,18.618,41.891,41.891,41.891H256
	c23.273,0,41.891-18.618,41.891-41.891C297.891,452.267,294.788,448.388,290.133,448.388z M256,482.521h-13.964
	c-11.636,0-21.721-7.758-24.824-18.618H281.6C277.721,474.764,267.636,482.521,256,482.521z"/>
<path style="fill:#FFFFFF;" d="M183.855,382.448v60.509c0,7.758,6.206,13.188,13.188,13.188h103.176
	c7.758,0,13.188-6.206,13.188-13.188v-60.509H183.855z"/>
<g>
	<path style="fill:#193651;" d="M314.182,374.691H183.855c-4.655,0-7.758,3.103-7.758,7.758v60.509
		c0,11.636,9.309,20.945,20.945,20.945h103.176c11.636,0,20.945-9.309,20.945-20.945v-60.509
		C321.939,377.794,318.061,374.691,314.182,374.691z M306.424,442.958c0,3.103-2.327,5.43-5.43,5.43H197.042
		c-3.103,0-5.43-2.327-5.43-5.43v-52.752h114.812L306.424,442.958L306.424,442.958z"/>
	<rect x="204.8" y="411.152" style="fill:#193651;" width="15.515" height="17.067"/>
	<rect x="241.261" y="411.152" style="fill:#193651;" width="15.515" height="17.067"/>
	<rect x="277.721" y="411.152" style="fill:#193651;" width="15.515" height="17.067"/>
</g> -->

<!-- small squares  -->
<rect x="83.006" y="229.624" style="fill:#193651;" width="15.515" height="15.515"/>
<rect x="399.515" y="229.624" style="fill:#193651;" width="15.515" height="15.515"/>
<rect x="128.915" y="342.336" transform="matrix(-0.7071 0.7071 -0.7071 -0.7071 480.8682 501.005)" style="fill:#193651;" width="15.515" height="15.515"/>
<rect x="353.743" y="117.622" transform="matrix(-0.7071 0.7071 -0.7071 -0.7071 705.7762 -41.5837)" style="fill:#193651;" width="15.515" height="15.515"/>
<rect x="241.261" y="71.37" style="fill:#193651;" width="15.515" height="15.515"/>
<rect x="353.706" y="341.794" transform="matrix(-0.7071 0.7071 -0.7071 -0.7071 864.2261 341.1284)" style="fill:#193651;" width="15.515" height="15.515"/>

<rect x="241.261" y="389.37" style="fill:#193651;" width="15.515" height="15.515"/>

<rect x="128.991" y="118.148" transform="matrix(-0.7071 0.7071 -0.7071 -0.7071 322.4735 118.2389)" style="fill:#193651;" width="15.515" height="15.515"/>

<g>
		<!-- Y shape  -->
		<!-- top  -->
	<!-- <path style="fill:#193651;" d="M249.018,290.133c-2.327,0-4.655-0.776-6.206-3.103l-43.442-57.406
		c-2.327-3.103-1.552-8.533,1.552-10.861c3.103-2.327,8.533-1.552,10.861,1.552l37.236,49.649l37.236-49.648
		c2.327-3.103,7.758-3.879,10.861-1.552c3.103,2.327,3.879,7.758,1.552,10.861l-43.442,57.406
		C253.673,289.358,251.345,290.133,249.018,290.133z"/> -->
		<!-- bottom  -->
	<!-- <path style="fill:#193651;" d="M249.018,390.206c-4.655,0-7.758-3.103-7.758-7.758V282.376c0-4.655,3.103-7.758,7.758-7.758
		c4.655,0,7.758,3.103,7.758,7.758v100.073C256.776,386.327,253.673,390.206,249.018,390.206z"/> -->
</g>

</svg>